<svg xmlns="http://www.w3.org/2000/svg" width="22" height="22.064" viewBox="0 0 22 22.064">
  <path id="user-square" d="M4,21.817A10.836,10.836,0,0,0,6.8,22H17.2a10.836,10.836,0,0,0,2.8-.183m-16,0a2.181,2.181,0,0,1-.362-.144,3,3,0,0,1-1.311-1.311A7.453,7.453,0,0,1,2,17.2V6.8a7.453,7.453,0,0,1,.327-3.162A3,3,0,0,1,3.638,2.327,7.453,7.453,0,0,1,6.8,2H17.2a7.453,7.453,0,0,1,3.162.327,3,3,0,0,1,1.311,1.311A7.453,7.453,0,0,1,22,6.8V17.2a7.453,7.453,0,0,1-.327,3.162,3,3,0,0,1-1.311,1.311,2.181,2.181,0,0,1-.362.144m-16,0a8.81,8.81,0,0,1,.077-1.6A4,4,0,0,1,7.22,17.077,10.035,10.035,0,0,1,9,17h6a10.036,10.036,0,0,1,1.78.077,4,4,0,0,1,3.143,3.143,8.81,8.81,0,0,1,.077,1.6M16,9.5a4,4,0,1,1-4-4A4,4,0,0,1,16,9.5Z" transform="translate(-1 -1)" fill="none" stroke="#1a1a1a" stroke-linecap="round" stroke-linejoin="round" stroke-width="2"/>
</svg>
