<svg xmlns="http://www.w3.org/2000/svg" width="45.438" height="40" viewBox="0 0 45.438 40">
  <path id="Path_94" data-name="Path 94" d="M-31.982-101.536c0,.5.215.716.716.716h17.6c.5,0,.716-.215.716-.716v-20.537c0-.5-.215-.716-.716-.716H-20.1c-.5,0-.716-.215-.716-.716a7.4,7.4,0,0,1,2.361-5.725,7.2,7.2,0,0,1,4.794-2.075c.5,0,.716-.215.716-.716V-140.1c0-.5-.215-.716-.716-.716-5.438,0-9.875,1.717-13.238,5.224s-5.081,8.086-5.081,13.667Zm26.4,0c0,.5.215.716.716.716h17.6c.5,0,.716-.215.716-.716v-20.537c0-.5-.215-.716-.716-.716H6.3c-.5,0-.787-.215-.787-.716a7.4,7.4,0,0,1,2.361-5.725A7.223,7.223,0,0,1,12.74-131.3c.5,0,.716-.215.716-.716V-140.1c0-.5-.215-.716-.716-.716C7.3-140.82,2.866-139.1-.5-135.6s-5.081,8.086-5.081,13.667Z" transform="translate(31.982 140.82)" fill="#4911d7"/>
</svg>
